{"title":"Prithvi 2010","uid":6466989,"size":1260186770,"categoryP":"video","categoryS":"movies","magnet":"?xt=urn:btih:0dddc3d33f6004bb50abe422a8069b98b6cca0ce&amp;dn=Prithvi+2010&amp;tr=udp%3A%2F%2Ftracker.openbittorrent.com%3A80&amp;tr=udp%3A%2F%2Fopen.demonii.com%3A1337&amp;tr=udp%3A%2F%2Ftracker.coppersurfer.tk%3A6969&amp;tr=udp%3A%2F%2Fexodus.desync.com%3A6969","seeders":0,"leechers":2,"uploader":null,"files":-1,"time":1307994890,"description":"\n\nProducer: Soorappa Babu\n\nDirector: jacob Vergeese\n\nCast: Puneet Rajkumar, Parvathi Menon, Avinash, Sadhu Kokila, Shrinivasmurthy and CR Simha\n\nMusic: Manikanth Khadri\n\nScoring - 7/10\n\n\nVideo Details\n\nFormat : AVI \nFormat/Info : Audio Video Interleave \nFile size : 695 MiB \nDuration : 1h 23mn \nOverall bit rate : 1 159 Kbps \nWriting application : Lavf52.32.0 \n\nFormat : MPEG-4 Visual \nFormat profile : Simple@L1 \nFormat settings, BVOP : No \nFormat settings, QPel : No \nFormat settings, GMC : No warppoints \nFormat settings, Matrix : Default (H.263) \nCodec ID : DIVX \nCodec ID/Info : Project Mayo \nCodec ID/Hint : DivX 4 \nDuration : 1h 23mn \nBit rate : 1 019 Kbps \nWidth : 352 pixels \nHeight : 288 pixels \nDisplay aspect ratio : 1.222 \nFrame rate : 23.976 fps \nStandard : PAL \nColor space : YUV \nChroma subsampling : 4:2:0 \nBit depth : 8 bits \nScan type : Progressive \nCompression mode : Lossy \nBits/(Pixel*Frame) : 0.419 \nStream size : 611 MiB (88%) \nWriting library : Lavc52.22.3 \n\nAudio \nID : 1 \nFormat : MPEG Audio \nFormat version : Version 1 \nFormat profile : Layer 3 \nMode : Joint stereo \nMode extension : MS Stereo \nCodec ID : 55 \nCodec ID/Hint : MP3 \nDuration : 1h 23mn \nBit rate mode : Constant \nBit rate : 128 Kbps \nChannel(s) : 2 channels \nSampling rate : 44.1 KHz \nCompression mode : Lossy \nStream size : 76.7 MiB (11%) \nAlignment : Aligned on interleaves \nInterleave, duration : 26 ms (0.63 video frame) \nWriting library : LAME3.98.2\n\n\nScreen-\n &lt;a href=&quot;\nhttp://savesnap.com/images/pp.jpg&quot; rel=&quot;nofollow&quot; target=&quot;_NEW&quot;&gt;\nhttp://savesnap.com/images/pp.jpg&lt;/a&gt;\n &lt;a href=&quot;\nhttp://savesnap.com/images/m1.jpg&quot; rel=&quot;nofollow&quot; target=&quot;_NEW&quot;&gt;\nhttp://savesnap.com/images/m1.jpg&lt;/a&gt;\n\n\n ","torrent":{"xt":"urn:btih:0dddc3d33f6004bb50abe422a8069b98b6cca0ce","amp;dn":"Prithvi+2010","amp;tr":["udp%3A%2F%2Ftracker.openbittorrent.com%3A80","udp%3A%2F%2Fopen.demonii.com%3A1337","udp%3A%2F%2Ftracker.coppersurfer.tk%3A6969","udp%3A%2F%2Fexodus.desync.com%3A6969"],"infoHash":"0dddc3d33f6004bb50abe422a8069b98b6cca0ce","infoHashBuffer":{"type":"Buffer","data":[13,221,195,211,63,96,4,187,80,171,228,34,168,6,155,152,182,204,160,206]},"announce":[],"urlList":[]}}